<svg width="37" height="37" viewBox="0 0 37 37" fill="none" xmlns="http://www.w3.org/2000/svg">
<path d="M34.1204 18.4101C34.1204 17.1151 34.0132 16.1701 33.7811 15.1901H18.6918V21.0351H27.5489C27.3704 22.4876 26.4061 24.6751 24.2632 26.1451L24.2332 26.3407L29.0041 29.9628L29.3347 29.9951C32.3703 27.2476 34.1204 23.2051 34.1204 18.4101Z" fill="#4285F4"/>
<path d="M18.6909 33.8103C23.0301 33.8103 26.6729 32.4102 29.3337 29.9952L24.2622 26.1451C22.9051 27.0726 21.0837 27.7201 18.6909 27.7201C14.4409 27.7201 10.8338 24.9727 9.54798 21.1751L9.3595 21.1908L4.39862 24.9534L4.33374 25.1301C6.97656 30.2751 12.4051 33.8103 18.6909 33.8103Z" fill="#34A853"/>
<path d="M9.54886 21.1754C9.20958 20.1954 9.01322 19.1453 9.01322 18.0604C9.01322 16.9753 9.20958 15.9254 9.53101 14.9454L9.52202 14.7367L4.49895 10.9137L4.3346 10.9903C3.24537 13.1254 2.62036 15.5229 2.62036 18.0604C2.62036 20.5979 3.24537 22.9953 4.3346 25.1303L9.54886 21.1754Z" fill="#FBBC05"/>
<path d="M18.6909 8.40028C21.7088 8.40028 23.7444 9.67778 24.9052 10.7453L29.4409 6.40532C26.6553 3.86783 23.0302 2.31033 18.6909 2.31033C12.4052 2.31033 6.97657 5.8453 4.33374 10.9903L9.53016 14.9453C10.8338 11.1478 14.441 8.40028 18.6909 8.40028Z" fill="#EB4335"/>
</svg>
